<svg width="18" height="18" viewBox="0 0 18 18" fill="none" xmlns="http://www.w3.org/2000/svg">
<path d="M9 1C4.5816 1 1 4.5816 1 9C1 13.4184 4.5816 17 9 17C13.4184 17 17 13.4184 17 9C17 4.5816 13.4184 1 9 1Z" stroke="black" stroke-width="1.5" stroke-linecap="round" stroke-linejoin="round"/>
<path d="M2.81689 14.0768C2.81689 14.0768 4.60009 11.8 9.0001 11.8C13.4001 11.8 15.1841 14.0768 15.1841 14.0768" stroke="black" stroke-width="1.5" stroke-linecap="round" stroke-linejoin="round"/>
<path d="M9.0001 9.00001C9.63662 9.00001 10.2471 8.74716 10.6972 8.29707C11.1472 7.84698 11.4001 7.23653 11.4001 6.60001C11.4001 5.96349 11.1472 5.35304 10.6972 4.90296C10.2471 4.45287 9.63662 4.20001 9.0001 4.20001C8.36358 4.20001 7.75313 4.45287 7.30304 4.90296C6.85295 5.35304 6.6001 5.96349 6.6001 6.60001C6.6001 7.23653 6.85295 7.84698 7.30304 8.29707C7.75313 8.74716 8.36358 9.00001 9.0001 9.00001V9.00001Z" stroke="black" stroke-width="1.5" stroke-linecap="round" stroke-linejoin="round"/>
</svg>
