<svg width="61" height="61" viewBox="0 0 61 61" fill="none" xmlns="http://www.w3.org/2000/svg">
<g clip-path="url(#clip0)">
<path d="M30.1037 0C13.5048 0 0 13.5048 0 30.1037C0 46.7026 13.5048 60.2074 30.1037 60.2074C46.7026 60.2074 60.2074 46.7026 60.2074 30.1037C60.2074 13.5048 46.7026 0 30.1037 0ZM30.1037 56.4444C15.5792 56.4444 3.76298 44.6282 3.76298 30.1037C3.76298 15.5792 15.5792 3.76298 30.1037 3.76298C44.6282 3.76298 56.4444 15.5792 56.4444 30.1037C56.4444 44.6282 44.6282 56.4444 30.1037 56.4444Z" fill="#D8D8D8"/>
<path d="M31.9854 11.2888H28.2224V30.8826L40.0625 42.7227L42.723 40.0622L31.9854 29.3245V11.2888Z" fill="#D8D8D8"/>
</g>
<defs>
<clipPath id="clip0">
<rect width="60.2074" height="60.2074" fill="white"/>
</clipPath>
</defs>
</svg>
