<svg width="18" height="11" viewBox="0 0 18 11" fill="none" xmlns="http://www.w3.org/2000/svg">
<path fill-rule="evenodd" clip-rule="evenodd" d="M16.4526 6.48213C16.3157 6.62456 16.1326 6.70247 15.9382 6.70247H3.17201V5.19784H15.9382C16.3397 5.19784 16.6657 5.53603 16.6657 5.95016C16.6657 6.15118 16.5903 6.34058 16.4526 6.48213ZM0.946665 8.67882H16.5801V7.41055H0.946665V8.67882ZM0.946665 1.80527C0.946665 1.36634 1.29236 1.00884 1.717 1.00884C1.92328 1.00884 2.11576 1.09202 2.26133 1.24235C2.40691 1.3929 2.48734 1.59283 2.48734 1.80527V6.70256H0.946665V1.80527ZM3.91325 3.7933C3.91325 3.40902 4.21608 3.09563 4.58767 3.09563H5.94414C6.31552 3.09563 6.61771 3.40902 6.61771 3.7933C6.61771 4.17736 6.31552 4.48987 5.94414 4.48987H4.58767C4.21608 4.48987 3.91325 4.17736 3.91325 3.7933ZM17.3504 5.95015C17.3504 5.14472 16.7169 4.48985 15.9381 4.48985H7.12269C7.23729 4.28443 7.30244 4.04631 7.30244 3.79327C7.30244 3.01879 6.69296 2.38762 5.94405 2.38762H4.58758C3.83782 2.38762 3.22834 3.01879 3.22834 3.79327C3.22834 4.04631 3.29349 4.28443 3.40809 4.48985H3.17189V1.80517C3.17189 1.40421 3.02037 1.0263 2.74577 0.742314C2.4718 0.457233 2.10637 0.300537 1.71695 0.300537C0.914993 0.300537 0.262009 0.975821 0.262009 1.80517V9.38692H1.39587V10.1305H2.73622V9.38692H14.876V10.1305H16.2163V9.38692H17.2646V6.70246H17.1492C17.2801 6.47773 17.3504 6.21921 17.3504 5.95015Z" fill="#58595B"/>
</svg>
