<svg width="18" height="16" viewBox="0 0 18 16" fill="none" xmlns="http://www.w3.org/2000/svg">
<path fill-rule="evenodd" clip-rule="evenodd" d="M16.455 10.0895C16.4542 11.9736 14.9816 13.505 13.1719 13.5042L5.17246 13.5014C3.3618 13.5004 1.88987 11.9679 1.89085 10.0841V8.63243L9.1739 8.63525L12.8401 8.63628L16.456 8.63705L16.455 10.0895ZM11.6655 3.31991C11.7699 2.93437 12.1114 2.65086 12.5156 2.65086C12.9189 2.65086 13.2603 2.93514 13.3645 3.32093L11.6655 3.31991ZM17.4731 7.90177H16.1729V6.97202H15.8342L15.8359 2.16305C15.8359 1.10923 15.0124 0.251514 13.9996 0.250488C13.0531 0.250488 12.2722 0.996955 12.1732 1.95413C11.4603 2.11614 10.9259 2.77879 10.9252 3.56755V4.05639L14.1041 4.05716V3.56934C14.1051 2.78981 13.5848 2.1346 12.8861 1.96054C12.978 1.40838 13.4424 0.986958 13.9989 0.986958C14.6224 0.987727 15.1284 1.51502 15.1284 2.16305L15.1267 6.97125H14.7877L14.7869 7.90075L1.18333 7.89511H0.873669C0.678069 7.89511 0.519913 8.05994 0.519913 8.26347C0.519913 8.36473 0.559575 8.45675 0.623379 8.52391C0.686937 8.59005 0.775376 8.63158 0.873669 8.63158H1.18333V10.084C1.18234 12.2773 2.82401 14.0793 4.8963 14.2275V15.1275H6.28151L6.2825 14.2375L12.0609 14.2403V15.1293L13.4461 15.1304L13.4468 14.2303C15.5193 14.084 17.1617 12.2827 17.1627 10.0904L17.1635 8.63799H17.4731C17.6687 8.63799 17.8269 8.47316 17.8269 8.26988C17.8269 8.1676 17.7872 8.07557 17.7234 8.00944C17.6589 7.94304 17.5704 7.90177 17.4731 7.90177Z" fill="#58595B"/>
</svg>
