<svg width="46" height="46" viewBox="0 0 46 46" fill="none" xmlns="http://www.w3.org/2000/svg">
<ellipse cx="23.4629" cy="23.1709" rx="8.78906" ry="8.65385" fill="white"/>
<path d="M28.5107 24.1351C28.5107 24.3367 28.4452 24.4748 28.3585 24.5614C28.2718 24.6481 28.1338 24.7136 27.9322 24.7136H24.0756C23.228 24.7136 22.5329 24.0185 22.5329 23.171V18.3502C22.5329 18.1486 22.5984 18.0105 22.6851 17.9239C22.7718 17.8372 22.9098 17.7717 23.1114 17.7717C23.313 17.7717 23.451 17.8372 23.5377 17.9239C23.6244 18.0105 23.6899 18.1486 23.6899 18.3502V22.2068C23.6899 22.5733 23.8692 22.9075 24.1042 23.1424C24.3391 23.3773 24.6733 23.5566 25.0397 23.5566H27.9322C28.1338 23.5566 28.2718 23.6222 28.3585 23.7088C28.4452 23.7955 28.5107 23.9335 28.5107 24.1351Z" fill="#FF3300"/>
<path fill-rule="evenodd" clip-rule="evenodd" d="M32.3673 23.171C32.3673 28.2609 28.2013 32.4269 23.1114 32.4269C18.0215 32.4269 13.8555 28.2609 13.8555 23.171C13.8555 18.0811 18.0215 13.915 23.1114 13.915C28.2013 13.915 32.3673 18.0811 32.3673 23.171ZM31.2103 23.171C31.2103 18.7157 27.5667 15.072 23.1114 15.072C18.6561 15.072 15.0125 18.7157 15.0125 23.171C15.0125 27.6263 18.6561 31.2699 23.1114 31.2699C27.5667 31.2699 31.2103 27.6263 31.2103 23.171Z" fill="#FF3300"/>
</svg>
