<svg width="21" height="21" viewBox="0 0 21 21" fill="none" xmlns="http://www.w3.org/2000/svg">
<path d="M19.3982 17.0434L19.8213 17.31L19.8212 17.3101L19.8211 17.3103L19.8204 17.3113L19.8179 17.3154L19.8079 17.3312L19.7701 17.3913L19.6338 17.6075L19.2106 18.2789C18.8968 18.7766 18.5637 19.3047 18.4911 19.4188L18.4824 19.432C18.1569 19.9095 17.5004 20.1394 16.489 20.1394C15.4042 20.1394 14.2832 19.923 11.7797 18.5462C9.7057 17.4056 7.74754 15.6341 6.72721 14.6039C5.66177 13.5642 3.86488 11.5005 2.66019 9.31647C1.60732 7.40764 1.17673 5.81913 1.17673 4.68963C1.17673 4.1454 1.24286 3.74724 1.3706 3.4359C1.50415 3.11039 1.68906 2.92036 1.83918 2.78083C2.0054 2.62635 2.39972 2.36413 2.72409 2.15339C2.91539 2.02911 3.09326 1.9159 3.23205 1.82756C3.3537 1.75013 3.44534 1.69181 3.48972 1.66186C3.66747 1.54191 4.00093 1.41268 4.37579 1.41762C4.78264 1.42298 5.24565 1.58925 5.5829 2.07438C5.85158 2.46088 6.26194 3.07915 6.67504 3.70155C6.97549 4.15421 7.27738 4.60906 7.52727 4.97851C8.05795 5.69062 8.17947 6.30487 8.02066 6.83806C7.94647 7.08718 7.82068 7.28211 7.71074 7.42652C7.65638 7.49791 7.60236 7.56135 7.56082 7.61013L7.56038 7.61064C7.51428 7.66478 7.48916 7.6946 7.47172 7.71838C7.38034 7.84302 7.29426 7.95238 7.22218 8.04396C7.20104 8.07082 7.1811 8.09615 7.16258 8.11989C7.07665 8.23008 7.02054 8.30697 6.97859 8.37934C6.91043 8.4969 6.8605 8.6323 6.8605 8.93915C6.8605 8.93735 6.86053 8.93746 6.86093 8.93964C6.86257 8.94849 6.87048 8.99129 6.9087 9.07722C6.95254 9.1758 7.02149 9.29871 7.1158 9.44336C7.30417 9.73232 7.56743 10.0683 7.85623 10.409C8.35933 11.0025 8.90958 11.5752 9.21213 11.8901C9.25632 11.9361 9.29522 11.9766 9.32792 12.0109C9.5566 12.2504 10.1868 12.8251 10.8451 13.3546C11.1727 13.6181 11.4972 13.8623 11.7739 14.0441C11.9125 14.1352 12.0322 14.206 12.1295 14.255C12.1779 14.2794 12.2166 14.2962 12.246 14.3071C12.2731 14.3172 12.2854 14.3196 12.2854 14.3197C12.2854 14.3197 12.2852 14.3196 12.2847 14.3196C12.4355 14.3424 12.69 14.2703 12.9974 14.0969C13.2835 13.9356 13.5164 13.7434 13.5822 13.6814C13.5945 13.6698 13.6073 13.6588 13.6208 13.6485C14.1927 13.2094 14.7169 13.1092 15.197 13.2296C15.4166 13.2846 15.6009 13.3798 15.7449 13.4643C15.8079 13.5012 15.8684 13.5393 15.9196 13.5715C15.9265 13.5758 15.9332 13.5801 15.9398 13.5842C15.9985 13.6211 16.0431 13.6486 16.0832 13.6706C16.5374 13.9201 18.5216 15.157 19.14 15.5761L19.1517 15.5843C19.5491 15.8704 19.7372 16.2386 19.8237 16.5296C19.8666 16.674 19.8852 16.8013 19.8931 16.8949C19.8971 16.942 19.8984 16.9815 19.8986 17.0113C19.8988 17.0263 19.8986 17.0389 19.8983 17.049L19.8979 17.0622L19.8977 17.0673L19.8976 17.0695L19.8975 17.0705L19.8975 17.071C19.8975 17.0712 19.8975 17.0715 19.3982 17.0434ZM19.3982 17.0434L19.8213 17.31C19.8665 17.2382 19.8927 17.1561 19.8975 17.0715L19.3982 17.0434Z" stroke="#515C61" stroke-linejoin="round"/>
</svg>
