<svg width="16" height="16" viewBox="0 0 16 16" fill="none" xmlns="http://www.w3.org/2000/svg">
<path d="M8.70365 1.3831C8.70365 0.730879 8.17492 0.202148 7.5227 0.202148C6.87048 0.202148 6.34174 0.730879 6.34174 1.3831V6.50082H1.18095C0.52873 6.50082 0 7.02956 0 7.68178C0 8.334 0.52873 8.86273 1.18095 8.86273H6.34174V14.6137C6.34174 15.2659 6.87048 15.7946 7.5227 15.7946C8.17492 15.7946 8.70365 15.2659 8.70365 14.6137V8.86273H14.433C15.0852 8.86273 15.614 8.334 15.614 7.68178C15.614 7.02956 15.0852 6.50082 14.433 6.50082H8.70365V1.3831Z" fill="#F04D24" fill-opacity="0.5"/>
</svg>
