<svg width="16" height="14" viewBox="0 0 16 14" fill="none" xmlns="http://www.w3.org/2000/svg">
<path d="M8.3264 0.111664C8.23176 0.0392994 8.1152 0 7.9952 0C7.8752 0 7.75864 0.0392994 7.664 0.111664L0 5.97286L0.662933 6.79515L1.6 6.07852V12.5538C1.60056 12.8311 1.71313 13.0969 1.91304 13.293C2.11296 13.489 2.38394 13.5994 2.66667 13.6H13.3333C13.6161 13.5994 13.887 13.489 14.087 13.293C14.2869 13.0969 14.3994 12.8311 14.4 12.5538V6.08323L15.3371 6.79986L16 5.97757L8.3264 0.111664ZM9.06667 12.5538H6.93333V8.36913H9.06667V12.5538ZM10.1333 12.5538V8.36913C10.1331 8.09175 10.0206 7.82581 9.8206 7.62967C9.62063 7.43354 9.34948 7.32323 9.06667 7.32295H6.93333C6.65052 7.32323 6.37938 7.43354 6.1794 7.62967C5.97942 7.82581 5.86695 8.09175 5.86667 8.36913V12.5538H2.66667V5.26303L8 1.18818L13.3333 5.26826V12.5538H10.1333Z" fill="white"/>
</svg>
